<mxfile host="app.diagrams.net" agent="Mozilla/5.0 (Windows NT 10.0; Win64; x64) AppleWebKit/537.36 (KHTML, like Gecko) Chrome/132.0.0.0 YaBrowser/25.2.0.0 Safari/537.36" version="26.1.1" pages="2">
  <diagram id="FZimzOWbiY0pmrnXrLaN" name="DFD контекстная">
    <mxGraphModel dx="2675" dy="2274" grid="1" gridSize="10" guides="1" tooltips="1" connect="1" arrows="1" fold="1" page="1" pageScale="1" pageWidth="827" pageHeight="1169" math="0" shadow="0">
      <root>
        <mxCell id="0" />
        <mxCell id="1" parent="0" />
        <mxCell id="komNeLyyzliTDDAAMzvB-8" value="&lt;h1&gt;&lt;font style=&quot;font-size: 40px;&quot;&gt;Задание&lt;/font&gt;&lt;/h1&gt;&lt;font style=&quot;font-size: 20px;&quot;&gt;Составьте контекстную модель потоков данных из представленных элементов&lt;br&gt;&lt;/font&gt;&lt;p style=&quot;font-size: 20px;&quot;&gt;&lt;font style=&quot;font-size: 20px;&quot;&gt;Как выполнить задание:&lt;/font&gt;&lt;/p&gt;&lt;p style=&quot;font-size: 20px;&quot;&gt;&lt;font style=&quot;font-size: 20px;&quot;&gt;1. Просмотрите MVP, которое вы составили, для изменений которые будут производиться в рамках этих доработок вам необходимо составить контекстную модель потоков данных.&amp;nbsp;&lt;/font&gt;&lt;/p&gt;&lt;p style=&quot;font-size: 20px;&quot;&gt;2. Просмотрите доступные элементы (процесс и внешние сущности) для составления модели.&lt;span style=&quot;background-color: initial;&quot;&gt;&amp;nbsp;Корректно расставьте и соедините элементы потоками данных и подпишите получившиеся потоки.&lt;/span&gt;&lt;/p&gt;&lt;p style=&quot;font-size: 20px;&quot;&gt;&lt;font style=&quot;font-size: 20px;&quot;&gt;3. Если вам не хватает информации в задании, то вы можете ее самостоятельно добавить в виде допущения&lt;/font&gt;&lt;/p&gt;&lt;p style=&quot;font-size: 20px;&quot;&gt;&lt;i&gt;Помните, что вы всегда можете оставить дополнительную информацию со своими размышлениями ревьюеру в виде пометок. Просто возьмите одну из карточек ниже.&amp;nbsp;&lt;/i&gt;&lt;/p&gt;&lt;p style=&quot;font-size: 20px;&quot;&gt;&lt;font style=&quot;font-size: 20px;&quot;&gt;4. Когда модель потоков данных будет готова, переходите к вкладке №2 для составления логических моделей потоков данных 1 уровня.&lt;/font&gt;&lt;/p&gt;" style="text;html=1;strokeColor=#82b366;fillColor=#d5e8d4;spacing=5;spacingTop=-20;whiteSpace=wrap;overflow=hidden;rounded=0;fontSize=16;" parent="1" vertex="1">
          <mxGeometry x="-770" y="-1120" width="740" height="610" as="geometry" />
        </mxCell>
        <mxCell id="aTnKVqkA6cAcyKfYnq1G-1" value="Врач" style="html=1;dashed=0;whitespace=wrap;" vertex="1" parent="1">
          <mxGeometry x="569" y="-1080" width="100" height="50" as="geometry" />
        </mxCell>
        <mxCell id="aTnKVqkA6cAcyKfYnq1G-2" value="Лаборатория" style="html=1;dashed=0;whitespace=wrap;" vertex="1" parent="1">
          <mxGeometry x="699" y="-900" width="100" height="50" as="geometry" />
        </mxCell>
        <mxCell id="aTnKVqkA6cAcyKfYnq1G-3" value="Пациент" style="html=1;dashed=0;whitespace=wrap;" vertex="1" parent="1">
          <mxGeometry x="28" y="-910" width="150" height="60" as="geometry" />
        </mxCell>
        <mxCell id="aTnKVqkA6cAcyKfYnq1G-4" value="0" style="swimlane;childLayout=stackLayout;horizontal=1;startSize=30;horizontalStack=0;rounded=1;fontSize=14;fontStyle=0;strokeWidth=1;resizeParent=0;resizeLast=1;shadow=0;dashed=0;align=center;fillColor=#FFFFFF;" vertex="1" parent="1">
          <mxGeometry x="359" y="-950" width="150" height="110" as="geometry" />
        </mxCell>
        <mxCell id="aTnKVqkA6cAcyKfYnq1G-5" value="Приложение &quot;Вита&quot;" style="align=center;strokeColor=none;fillColor=none;spacingLeft=4;fontSize=12;verticalAlign=middle;resizable=0;rotatable=0;part=1;" vertex="1" parent="aTnKVqkA6cAcyKfYnq1G-4">
          <mxGeometry y="30" width="150" height="80" as="geometry" />
        </mxCell>
        <mxCell id="aTnKVqkA6cAcyKfYnq1G-6" value="" style="endArrow=classic;html=1;rounded=0;exitX=0;exitY=0.75;exitDx=0;exitDy=0;" edge="1" parent="1" source="aTnKVqkA6cAcyKfYnq1G-5">
          <mxGeometry width="50" height="50" relative="1" as="geometry">
            <mxPoint x="253.71000000000004" y="-820" as="sourcePoint" />
            <mxPoint x="179" y="-860" as="targetPoint" />
          </mxGeometry>
        </mxCell>
        <mxCell id="aTnKVqkA6cAcyKfYnq1G-7" value="Назначения" style="edgeLabel;html=1;align=center;verticalAlign=middle;resizable=0;points=[];" vertex="1" connectable="0" parent="aTnKVqkA6cAcyKfYnq1G-6">
          <mxGeometry x="0.2111" relative="1" as="geometry">
            <mxPoint x="4" as="offset" />
          </mxGeometry>
        </mxCell>
        <mxCell id="aTnKVqkA6cAcyKfYnq1G-8" value="" style="endArrow=classic;html=1;rounded=0;entryX=0.5;entryY=0;entryDx=0;entryDy=0;startArrow=none;startFill=0;exitX=0;exitY=0.5;exitDx=0;exitDy=0;" edge="1" parent="1" source="aTnKVqkA6cAcyKfYnq1G-1" target="aTnKVqkA6cAcyKfYnq1G-4">
          <mxGeometry width="50" height="50" relative="1" as="geometry">
            <mxPoint x="569" y="-1050" as="sourcePoint" />
            <mxPoint x="409" y="-840" as="targetPoint" />
            <Array as="points">
              <mxPoint x="434" y="-1055" />
            </Array>
          </mxGeometry>
        </mxCell>
        <mxCell id="aTnKVqkA6cAcyKfYnq1G-9" value="Назначения" style="edgeLabel;html=1;align=center;verticalAlign=middle;resizable=0;points=[];" vertex="1" connectable="0" parent="aTnKVqkA6cAcyKfYnq1G-8">
          <mxGeometry x="0.2111" relative="1" as="geometry">
            <mxPoint x="65" y="-10" as="offset" />
          </mxGeometry>
        </mxCell>
        <mxCell id="aTnKVqkA6cAcyKfYnq1G-10" value="" style="endArrow=classic;html=1;rounded=0;entryX=1;entryY=0.5;entryDx=0;entryDy=0;exitX=0;exitY=0.5;exitDx=0;exitDy=0;" edge="1" parent="1" source="aTnKVqkA6cAcyKfYnq1G-5" target="aTnKVqkA6cAcyKfYnq1G-3">
          <mxGeometry width="50" height="50" relative="1" as="geometry">
            <mxPoint x="253.71000000000004" y="-930" as="sourcePoint" />
            <mxPoint x="253.71000000000004" y="-1110" as="targetPoint" />
          </mxGeometry>
        </mxCell>
        <mxCell id="aTnKVqkA6cAcyKfYnq1G-11" value="Расписание" style="edgeLabel;html=1;align=center;verticalAlign=middle;resizable=0;points=[];" vertex="1" connectable="0" parent="aTnKVqkA6cAcyKfYnq1G-10">
          <mxGeometry x="0.2111" relative="1" as="geometry">
            <mxPoint x="5" as="offset" />
          </mxGeometry>
        </mxCell>
        <mxCell id="aTnKVqkA6cAcyKfYnq1G-12" value="" style="endArrow=classic;html=1;rounded=0;exitX=0;exitY=0.25;exitDx=0;exitDy=0;entryX=1.008;entryY=0.155;entryDx=0;entryDy=0;entryPerimeter=0;" edge="1" parent="1" source="aTnKVqkA6cAcyKfYnq1G-5" target="aTnKVqkA6cAcyKfYnq1G-3">
          <mxGeometry width="50" height="50" relative="1" as="geometry">
            <mxPoint x="259" y="-930" as="sourcePoint" />
            <mxPoint x="189" y="-900" as="targetPoint" />
          </mxGeometry>
        </mxCell>
        <mxCell id="aTnKVqkA6cAcyKfYnq1G-13" value="Статус анализов" style="edgeLabel;html=1;align=center;verticalAlign=middle;resizable=0;points=[];" vertex="1" connectable="0" parent="aTnKVqkA6cAcyKfYnq1G-12">
          <mxGeometry x="0.2111" relative="1" as="geometry">
            <mxPoint x="9" as="offset" />
          </mxGeometry>
        </mxCell>
        <mxCell id="aTnKVqkA6cAcyKfYnq1G-14" value="" style="endArrow=classic;html=1;rounded=0;exitX=0;exitY=0;exitDx=0;exitDy=0;entryX=1;entryY=0.25;entryDx=0;entryDy=0;" edge="1" parent="1">
          <mxGeometry width="50" height="50" relative="1" as="geometry">
            <mxPoint x="699" y="-894" as="sourcePoint" />
            <mxPoint x="509" y="-894" as="targetPoint" />
          </mxGeometry>
        </mxCell>
        <mxCell id="aTnKVqkA6cAcyKfYnq1G-15" value="Статус анализов" style="edgeLabel;html=1;align=center;verticalAlign=middle;resizable=0;points=[];" vertex="1" connectable="0" parent="aTnKVqkA6cAcyKfYnq1G-14">
          <mxGeometry x="0.2111" relative="1" as="geometry">
            <mxPoint x="25" y="-1" as="offset" />
          </mxGeometry>
        </mxCell>
        <mxCell id="aTnKVqkA6cAcyKfYnq1G-16" value="" style="endArrow=classic;html=1;rounded=0;exitX=0.999;exitY=0.142;exitDx=0;exitDy=0;entryX=0.5;entryY=0;entryDx=0;entryDy=0;exitPerimeter=0;" edge="1" parent="1" source="aTnKVqkA6cAcyKfYnq1G-4" target="aTnKVqkA6cAcyKfYnq1G-2">
          <mxGeometry width="50" height="50" relative="1" as="geometry">
            <mxPoint x="599" y="-800" as="sourcePoint" />
            <mxPoint x="649" y="-850" as="targetPoint" />
            <Array as="points">
              <mxPoint x="749" y="-934" />
            </Array>
          </mxGeometry>
        </mxCell>
        <mxCell id="aTnKVqkA6cAcyKfYnq1G-17" value="Назначения нациента" style="edgeLabel;html=1;align=center;verticalAlign=middle;resizable=0;points=[];" vertex="1" connectable="0" parent="aTnKVqkA6cAcyKfYnq1G-16">
          <mxGeometry x="-0.0551" y="1" relative="1" as="geometry">
            <mxPoint as="offset" />
          </mxGeometry>
        </mxCell>
        <mxCell id="aTnKVqkA6cAcyKfYnq1G-18" value="" style="endArrow=classic;html=1;rounded=0;entryX=0.012;entryY=0.142;entryDx=0;entryDy=0;entryPerimeter=0;" edge="1" parent="1" target="aTnKVqkA6cAcyKfYnq1G-4">
          <mxGeometry width="50" height="50" relative="1" as="geometry">
            <mxPoint x="164" y="-910" as="sourcePoint" />
            <mxPoint x="459" y="-1010" as="targetPoint" />
            <Array as="points">
              <mxPoint x="164" y="-934" />
            </Array>
          </mxGeometry>
        </mxCell>
        <mxCell id="aTnKVqkA6cAcyKfYnq1G-19" value="Данные профиля" style="edgeLabel;html=1;align=center;verticalAlign=middle;resizable=0;points=[];" vertex="1" connectable="0" parent="aTnKVqkA6cAcyKfYnq1G-18">
          <mxGeometry x="-0.5069" relative="1" as="geometry">
            <mxPoint x="75" y="-1" as="offset" />
          </mxGeometry>
        </mxCell>
        <mxCell id="aTnKVqkA6cAcyKfYnq1G-20" value="" style="endArrow=classic;html=1;rounded=0;startArrow=none;startFill=0;exitX=-0.01;exitY=0.853;exitDx=0;exitDy=0;exitPerimeter=0;" edge="1" parent="1" source="aTnKVqkA6cAcyKfYnq1G-1">
          <mxGeometry width="50" height="50" relative="1" as="geometry">
            <mxPoint x="439" y="-690" as="sourcePoint" />
            <mxPoint x="465" y="-950" as="targetPoint" />
            <Array as="points">
              <mxPoint x="465" y="-1037" />
            </Array>
          </mxGeometry>
        </mxCell>
        <mxCell id="aTnKVqkA6cAcyKfYnq1G-21" value="Заключения" style="edgeLabel;html=1;align=center;verticalAlign=middle;resizable=0;points=[];" vertex="1" connectable="0" parent="aTnKVqkA6cAcyKfYnq1G-20">
          <mxGeometry x="0.2111" relative="1" as="geometry">
            <mxPoint x="50" y="-11" as="offset" />
          </mxGeometry>
        </mxCell>
        <mxCell id="aTnKVqkA6cAcyKfYnq1G-22" value="" style="endArrow=classic;html=1;rounded=0;entryX=0.777;entryY=0.994;entryDx=0;entryDy=0;exitX=0.119;exitY=1.005;exitDx=0;exitDy=0;exitPerimeter=0;entryPerimeter=0;" edge="1" parent="1" source="aTnKVqkA6cAcyKfYnq1G-5" target="aTnKVqkA6cAcyKfYnq1G-3">
          <mxGeometry width="50" height="50" relative="1" as="geometry">
            <mxPoint x="239" y="-740" as="sourcePoint" />
            <mxPoint x="239" y="-920" as="targetPoint" />
            <Array as="points">
              <mxPoint x="377" y="-830" />
              <mxPoint x="145" y="-830" />
            </Array>
          </mxGeometry>
        </mxCell>
        <mxCell id="aTnKVqkA6cAcyKfYnq1G-23" value="Заключения" style="edgeLabel;html=1;align=center;verticalAlign=middle;resizable=0;points=[];" vertex="1" connectable="0" parent="aTnKVqkA6cAcyKfYnq1G-22">
          <mxGeometry x="0.2111" relative="1" as="geometry">
            <mxPoint x="26" as="offset" />
          </mxGeometry>
        </mxCell>
        <mxCell id="aTnKVqkA6cAcyKfYnq1G-24" value="" style="endArrow=classic;html=1;rounded=0;exitX=0;exitY=0.8;exitDx=0;exitDy=0;entryX=1;entryY=0.75;entryDx=0;entryDy=0;exitPerimeter=0;" edge="1" parent="1" source="aTnKVqkA6cAcyKfYnq1G-2" target="aTnKVqkA6cAcyKfYnq1G-5">
          <mxGeometry width="50" height="50" relative="1" as="geometry">
            <mxPoint x="852" y="-863.8200000000002" as="sourcePoint" />
            <mxPoint x="839" y="-746.1700000000001" as="targetPoint" />
          </mxGeometry>
        </mxCell>
        <mxCell id="aTnKVqkA6cAcyKfYnq1G-25" value="Уведомления" style="edgeLabel;html=1;align=center;verticalAlign=middle;resizable=0;points=[];" vertex="1" connectable="0" parent="aTnKVqkA6cAcyKfYnq1G-24">
          <mxGeometry x="0.2111" relative="1" as="geometry">
            <mxPoint x="25" as="offset" />
          </mxGeometry>
        </mxCell>
        <mxCell id="aTnKVqkA6cAcyKfYnq1G-26" value="" style="endArrow=classic;html=1;rounded=0;entryX=0.627;entryY=1.029;entryDx=0;entryDy=0;exitX=0.25;exitY=1;exitDx=0;exitDy=0;entryPerimeter=0;" edge="1" parent="1" source="aTnKVqkA6cAcyKfYnq1G-5" target="aTnKVqkA6cAcyKfYnq1G-3">
          <mxGeometry width="50" height="50" relative="1" as="geometry">
            <mxPoint x="406" y="-801.6800000000001" as="sourcePoint" />
            <mxPoint x="129" y="-810" as="targetPoint" />
            <Array as="points">
              <mxPoint x="397" y="-810" />
              <mxPoint x="122" y="-810" />
            </Array>
          </mxGeometry>
        </mxCell>
        <mxCell id="aTnKVqkA6cAcyKfYnq1G-27" value="Результаты анализов" style="edgeLabel;html=1;align=center;verticalAlign=middle;resizable=0;points=[];" vertex="1" connectable="0" parent="aTnKVqkA6cAcyKfYnq1G-26">
          <mxGeometry x="0.2111" relative="1" as="geometry">
            <mxPoint x="35" as="offset" />
          </mxGeometry>
        </mxCell>
        <mxCell id="aTnKVqkA6cAcyKfYnq1G-28" value="" style="endArrow=classic;html=1;rounded=0;exitX=0.006;exitY=0.4;exitDx=0;exitDy=0;entryX=1;entryY=0.5;entryDx=0;entryDy=0;exitPerimeter=0;" edge="1" parent="1">
          <mxGeometry width="50" height="50" relative="1" as="geometry">
            <mxPoint x="699.5999999999999" y="-877" as="sourcePoint" />
            <mxPoint x="508.9999999999998" y="-877" as="targetPoint" />
          </mxGeometry>
        </mxCell>
        <mxCell id="aTnKVqkA6cAcyKfYnq1G-29" value="Результаты анализов" style="edgeLabel;html=1;align=center;verticalAlign=middle;resizable=0;points=[];" vertex="1" connectable="0" parent="aTnKVqkA6cAcyKfYnq1G-28">
          <mxGeometry x="0.2111" relative="1" as="geometry">
            <mxPoint x="25" as="offset" />
          </mxGeometry>
        </mxCell>
        <mxCell id="aTnKVqkA6cAcyKfYnq1G-30" value="" style="endArrow=classic;html=1;rounded=0;entryX=-0.013;entryY=0.196;entryDx=0;entryDy=0;exitX=0.334;exitY=0.003;exitDx=0;exitDy=0;exitPerimeter=0;entryPerimeter=0;" edge="1" parent="1" source="aTnKVqkA6cAcyKfYnq1G-4" target="aTnKVqkA6cAcyKfYnq1G-1">
          <mxGeometry width="50" height="50" relative="1" as="geometry">
            <mxPoint x="357" y="-940" as="sourcePoint" />
            <mxPoint x="229" y="-910" as="targetPoint" />
            <Array as="points">
              <mxPoint x="409" y="-1070" />
            </Array>
          </mxGeometry>
        </mxCell>
        <mxCell id="aTnKVqkA6cAcyKfYnq1G-31" value="Запись" style="edgeLabel;html=1;align=center;verticalAlign=middle;resizable=0;points=[];" vertex="1" connectable="0" parent="aTnKVqkA6cAcyKfYnq1G-30">
          <mxGeometry x="-0.5069" relative="1" as="geometry">
            <mxPoint x="90" y="-52" as="offset" />
          </mxGeometry>
        </mxCell>
      </root>
    </mxGraphModel>
  </diagram>
  <diagram id="5hfhekeH1kYWlCb4wukP" name="DFD логические">
    <mxGraphModel dx="2560" dy="2205" grid="1" gridSize="10" guides="1" tooltips="1" connect="1" arrows="1" fold="1" page="1" pageScale="1" pageWidth="827" pageHeight="1169" math="0" shadow="0">
      <root>
        <mxCell id="0" />
        <mxCell id="1" parent="0" />
        <mxCell id="JQqJk8gsrpiBfC45wu2H-1" value="&lt;h1&gt;&lt;font style=&quot;font-size: 40px;&quot;&gt;Задание&lt;/font&gt;&lt;/h1&gt;&lt;font style=&quot;font-size: 20px;&quot;&gt;Составьте две логические модели потоков данных 1 уровня из представленных элементов. По одной для каждого процесса.&lt;br&gt;&lt;/font&gt;&lt;p style=&quot;font-size: 20px;&quot;&gt;&lt;font style=&quot;font-size: 20px;&quot;&gt;Как выполнить задание:&lt;/font&gt;&lt;/p&gt;&lt;span style=&quot;font-size: 20px;&quot;&gt;1. Просмотрите MVP, которое вы составили, для изменений которые будут производиться в рамках этих доработок вам необходимо составить две логические модели потоков данных.&amp;nbsp;&lt;/span&gt;&lt;p style=&quot;font-size: 20px;&quot;&gt;2. Просмотрите доступные элементы (процесс и внешние сущности) для составления модели.&lt;span style=&quot;background-color: initial;&quot;&gt;&amp;nbsp;Корректно расставьте, соедините элементы потоками данных и подпишите получившиеся потоки.&amp;nbsp;&lt;/span&gt;&lt;/p&gt;&lt;p style=&quot;font-size: 20px;&quot;&gt;3. Добавьте в модели потоков данных к каждому процессу недостающие хранилища данных.&lt;/p&gt;&lt;p style=&quot;font-size: 20px;&quot;&gt;&lt;font style=&quot;font-size: 20px;&quot;&gt;4. Если вам не хватает информации в задании, то вы можете ее самостоятельно добавить в виде допущения&lt;/font&gt;&lt;/p&gt;&lt;p style=&quot;font-size: 20px;&quot;&gt;&lt;i&gt;Помните, что вы всегда можете оставить дополнительную информацию со своими размышлениями ревьюеру в виде пометок. Просто возьмите одну из карточек ниже.&amp;nbsp;&lt;/i&gt;&lt;/p&gt;&lt;p style=&quot;font-size: 20px;&quot;&gt;&lt;font style=&quot;font-size: 20px;&quot;&gt;5. Когда модели потоков данных будут готовы сохраните получившийся файл в формате .drawio, он понадобиться вам в части &quot;Ревью&quot;&lt;/font&gt;&lt;/p&gt;" style="text;html=1;strokeColor=#82b366;fillColor=#d5e8d4;spacing=5;spacingTop=-20;whiteSpace=wrap;overflow=hidden;rounded=0;fontSize=16;" parent="1" vertex="1">
          <mxGeometry x="-770" y="-1120" width="740" height="660" as="geometry" />
        </mxCell>
        <mxCell id="JYIaxgez9JIALN9z0v6e-12" value="" style="endArrow=classic;html=1;rounded=0;entryX=0.873;entryY=0.994;entryDx=0;entryDy=0;startArrow=classic;startFill=1;entryPerimeter=0;exitX=0.326;exitY=0.014;exitDx=0;exitDy=0;exitPerimeter=0;" edge="1" parent="1" source="HSQeCS5ckX4GGS8DgYOH-35">
          <mxGeometry width="50" height="50" relative="1" as="geometry">
            <mxPoint x="638.0000000000001" y="-610" as="sourcePoint" />
            <mxPoint x="637.9499999999999" y="-680.4799999999998" as="targetPoint" />
          </mxGeometry>
        </mxCell>
        <mxCell id="JYIaxgez9JIALN9z0v6e-13" value="Расписание" style="edgeLabel;html=1;align=center;verticalAlign=middle;resizable=0;points=[];" vertex="1" connectable="0" parent="JYIaxgez9JIALN9z0v6e-12">
          <mxGeometry x="0.2111" relative="1" as="geometry">
            <mxPoint y="13" as="offset" />
          </mxGeometry>
        </mxCell>
        <mxCell id="HSQeCS5ckX4GGS8DgYOH-1" value="Врач" style="html=1;dashed=0;whitespace=wrap;" vertex="1" parent="1">
          <mxGeometry x="720.0000000000001" y="-1040" width="100" height="50" as="geometry" />
        </mxCell>
        <mxCell id="HSQeCS5ckX4GGS8DgYOH-2" value="Лаборатория" style="html=1;dashed=0;whitespace=wrap;" vertex="1" parent="1">
          <mxGeometry x="1020.0000000000001" y="-850" width="100" height="50" as="geometry" />
        </mxCell>
        <mxCell id="HSQeCS5ckX4GGS8DgYOH-3" value="Пациент" style="html=1;dashed=0;whitespace=wrap;" vertex="1" parent="1">
          <mxGeometry x="180" y="-750" width="150" height="60" as="geometry" />
        </mxCell>
        <mxCell id="HSQeCS5ckX4GGS8DgYOH-4" value="1" style="swimlane;childLayout=stackLayout;horizontal=1;startSize=30;horizontalStack=0;rounded=1;fontSize=14;fontStyle=0;strokeWidth=1;resizeParent=0;resizeLast=1;shadow=0;dashed=0;align=center;fillColor=#FFFFFF;" vertex="1" parent="1">
          <mxGeometry x="511.0000000000001" y="-790" width="150" height="110" as="geometry" />
        </mxCell>
        <mxCell id="HSQeCS5ckX4GGS8DgYOH-5" value="Пройти обследование" style="align=center;strokeColor=none;fillColor=none;spacingLeft=4;fontSize=12;verticalAlign=middle;resizable=0;rotatable=0;part=1;" vertex="1" parent="HSQeCS5ckX4GGS8DgYOH-4">
          <mxGeometry y="30" width="150" height="80" as="geometry" />
        </mxCell>
        <mxCell id="HSQeCS5ckX4GGS8DgYOH-10" value="" style="endArrow=classic;html=1;rounded=0;entryX=1;entryY=0.5;entryDx=0;entryDy=0;exitX=0;exitY=0.5;exitDx=0;exitDy=0;" edge="1" parent="1">
          <mxGeometry width="50" height="50" relative="1" as="geometry">
            <mxPoint x="511.0000000000001" y="-700" as="sourcePoint" />
            <mxPoint x="330.0000000000001" y="-700" as="targetPoint" />
          </mxGeometry>
        </mxCell>
        <mxCell id="HSQeCS5ckX4GGS8DgYOH-11" value="Расписание" style="edgeLabel;html=1;align=center;verticalAlign=middle;resizable=0;points=[];" vertex="1" connectable="0" parent="HSQeCS5ckX4GGS8DgYOH-10">
          <mxGeometry x="0.2111" relative="1" as="geometry">
            <mxPoint x="5" as="offset" />
          </mxGeometry>
        </mxCell>
        <mxCell id="HSQeCS5ckX4GGS8DgYOH-12" value="" style="endArrow=classic;html=1;rounded=0;exitX=0;exitY=0.25;exitDx=0;exitDy=0;entryX=1.008;entryY=0.155;entryDx=0;entryDy=0;entryPerimeter=0;" edge="1" parent="1">
          <mxGeometry width="50" height="50" relative="1" as="geometry">
            <mxPoint x="511.0000000000001" y="-721" as="sourcePoint" />
            <mxPoint x="331.2000000000004" y="-721.7" as="targetPoint" />
          </mxGeometry>
        </mxCell>
        <mxCell id="HSQeCS5ckX4GGS8DgYOH-13" value="Статус анализов" style="edgeLabel;html=1;align=center;verticalAlign=middle;resizable=0;points=[];" vertex="1" connectable="0" parent="HSQeCS5ckX4GGS8DgYOH-12">
          <mxGeometry x="0.2111" relative="1" as="geometry">
            <mxPoint x="9" as="offset" />
          </mxGeometry>
        </mxCell>
        <mxCell id="HSQeCS5ckX4GGS8DgYOH-14" value="" style="endArrow=classic;html=1;rounded=0;exitX=0;exitY=0;exitDx=0;exitDy=0;entryX=1;entryY=0.25;entryDx=0;entryDy=0;" edge="1" parent="1">
          <mxGeometry width="50" height="50" relative="1" as="geometry">
            <mxPoint x="851.0000000000001" y="-734" as="sourcePoint" />
            <mxPoint x="661.0000000000001" y="-734" as="targetPoint" />
          </mxGeometry>
        </mxCell>
        <mxCell id="HSQeCS5ckX4GGS8DgYOH-15" value="Статус" style="edgeLabel;html=1;align=center;verticalAlign=middle;resizable=0;points=[];" vertex="1" connectable="0" parent="HSQeCS5ckX4GGS8DgYOH-14">
          <mxGeometry x="0.2111" relative="1" as="geometry">
            <mxPoint x="26" y="-1" as="offset" />
          </mxGeometry>
        </mxCell>
        <mxCell id="HSQeCS5ckX4GGS8DgYOH-16" value="" style="endArrow=classic;html=1;rounded=0;entryX=0.005;entryY=0.15;entryDx=0;entryDy=0;entryPerimeter=0;" edge="1" parent="1" target="HSQeCS5ckX4GGS8DgYOH-2">
          <mxGeometry width="50" height="50" relative="1" as="geometry">
            <mxPoint x="640.0000000000001" y="-791" as="sourcePoint" />
            <mxPoint x="801.0000000000001" y="-690" as="targetPoint" />
            <Array as="points">
              <mxPoint x="640.0000000000001" y="-842" />
            </Array>
          </mxGeometry>
        </mxCell>
        <mxCell id="HSQeCS5ckX4GGS8DgYOH-17" value="Назначения&amp;nbsp;" style="edgeLabel;html=1;align=center;verticalAlign=middle;resizable=0;points=[];" vertex="1" connectable="0" parent="HSQeCS5ckX4GGS8DgYOH-16">
          <mxGeometry x="-0.0551" y="1" relative="1" as="geometry">
            <mxPoint as="offset" />
          </mxGeometry>
        </mxCell>
        <mxCell id="HSQeCS5ckX4GGS8DgYOH-18" value="" style="endArrow=classic;html=1;rounded=0;entryX=-0.007;entryY=0.125;entryDx=0;entryDy=0;entryPerimeter=0;" edge="1" parent="1">
          <mxGeometry width="50" height="50" relative="1" as="geometry">
            <mxPoint x="330.0000000000001" y="-741" as="sourcePoint" />
            <mxPoint x="509.94999999999993" y="-741" as="targetPoint" />
            <Array as="points" />
          </mxGeometry>
        </mxCell>
        <mxCell id="HSQeCS5ckX4GGS8DgYOH-19" value="Данные профиля" style="edgeLabel;html=1;align=center;verticalAlign=middle;resizable=0;points=[];" vertex="1" connectable="0" parent="HSQeCS5ckX4GGS8DgYOH-18">
          <mxGeometry x="-0.5069" relative="1" as="geometry">
            <mxPoint x="36" y="-2" as="offset" />
          </mxGeometry>
        </mxCell>
        <mxCell id="HSQeCS5ckX4GGS8DgYOH-20" value="" style="endArrow=classic;html=1;rounded=0;startArrow=none;startFill=0;exitX=0;exitY=0.5;exitDx=0;exitDy=0;entryX=0.86;entryY=0;entryDx=0;entryDy=0;entryPerimeter=0;" edge="1" parent="1" source="HSQeCS5ckX4GGS8DgYOH-32">
          <mxGeometry width="50" height="50" relative="1" as="geometry">
            <mxPoint x="517.0000000000001" y="-530" as="sourcePoint" />
            <mxPoint x="566.0000000000001" y="-790" as="targetPoint" />
            <Array as="points">
              <mxPoint x="566.0000000000001" y="-925" />
            </Array>
          </mxGeometry>
        </mxCell>
        <mxCell id="HSQeCS5ckX4GGS8DgYOH-21" value="Заключения" style="edgeLabel;html=1;align=center;verticalAlign=middle;resizable=0;points=[];" vertex="1" connectable="0" parent="HSQeCS5ckX4GGS8DgYOH-20">
          <mxGeometry x="0.2111" relative="1" as="geometry">
            <mxPoint x="70" y="-19" as="offset" />
          </mxGeometry>
        </mxCell>
        <mxCell id="HSQeCS5ckX4GGS8DgYOH-22" value="" style="endArrow=classic;html=1;rounded=0;entryX=0.777;entryY=0.994;entryDx=0;entryDy=0;exitX=0.119;exitY=1.005;exitDx=0;exitDy=0;exitPerimeter=0;entryPerimeter=0;" edge="1" parent="1" source="HSQeCS5ckX4GGS8DgYOH-5" target="HSQeCS5ckX4GGS8DgYOH-3">
          <mxGeometry width="50" height="50" relative="1" as="geometry">
            <mxPoint x="391.0000000000001" y="-580" as="sourcePoint" />
            <mxPoint x="391.0000000000001" y="-760" as="targetPoint" />
            <Array as="points">
              <mxPoint x="529.0000000000001" y="-670" />
              <mxPoint x="297" y="-670" />
            </Array>
          </mxGeometry>
        </mxCell>
        <mxCell id="HSQeCS5ckX4GGS8DgYOH-23" value="Заключения" style="edgeLabel;html=1;align=center;verticalAlign=middle;resizable=0;points=[];" vertex="1" connectable="0" parent="HSQeCS5ckX4GGS8DgYOH-22">
          <mxGeometry x="0.2111" relative="1" as="geometry">
            <mxPoint x="26" as="offset" />
          </mxGeometry>
        </mxCell>
        <mxCell id="HSQeCS5ckX4GGS8DgYOH-24" value="" style="endArrow=classic;html=1;rounded=0;exitX=0.435;exitY=1.012;exitDx=0;exitDy=0;exitPerimeter=0;entryX=0.553;entryY=-0.091;entryDx=0;entryDy=0;entryPerimeter=0;" edge="1" parent="1" source="HSQeCS5ckX4GGS8DgYOH-2" target="HSQeCS5ckX4GGS8DgYOH-42">
          <mxGeometry width="50" height="50" relative="1" as="geometry">
            <mxPoint x="1090" y="-796" as="sourcePoint" />
            <mxPoint x="1090.2400000000002" y="-650" as="targetPoint" />
          </mxGeometry>
        </mxCell>
        <mxCell id="HSQeCS5ckX4GGS8DgYOH-48" value="&lt;span style=&quot;font-size: 12px; text-align: left; text-wrap-mode: wrap; background-color: rgb(251, 251, 251);&quot;&gt;Уведомления&lt;/span&gt;" style="edgeLabel;html=1;align=center;verticalAlign=middle;resizable=0;points=[];" vertex="1" connectable="0" parent="HSQeCS5ckX4GGS8DgYOH-24">
          <mxGeometry x="-0.1121" relative="1" as="geometry">
            <mxPoint as="offset" />
          </mxGeometry>
        </mxCell>
        <mxCell id="HSQeCS5ckX4GGS8DgYOH-26" value="" style="endArrow=classic;html=1;rounded=0;entryX=0.627;entryY=1.029;entryDx=0;entryDy=0;exitX=0.25;exitY=1;exitDx=0;exitDy=0;entryPerimeter=0;" edge="1" parent="1" source="HSQeCS5ckX4GGS8DgYOH-5" target="HSQeCS5ckX4GGS8DgYOH-3">
          <mxGeometry width="50" height="50" relative="1" as="geometry">
            <mxPoint x="558.0000000000001" y="-641.6800000000001" as="sourcePoint" />
            <mxPoint x="281" y="-650" as="targetPoint" />
            <Array as="points">
              <mxPoint x="549.0000000000001" y="-650" />
              <mxPoint x="274" y="-650" />
            </Array>
          </mxGeometry>
        </mxCell>
        <mxCell id="HSQeCS5ckX4GGS8DgYOH-27" value="Результаты анализов" style="edgeLabel;html=1;align=center;verticalAlign=middle;resizable=0;points=[];" vertex="1" connectable="0" parent="HSQeCS5ckX4GGS8DgYOH-26">
          <mxGeometry x="0.2111" relative="1" as="geometry">
            <mxPoint x="35" as="offset" />
          </mxGeometry>
        </mxCell>
        <mxCell id="HSQeCS5ckX4GGS8DgYOH-28" value="" style="endArrow=classic;html=1;rounded=0;exitX=0.006;exitY=0.4;exitDx=0;exitDy=0;entryX=1;entryY=0.5;entryDx=0;entryDy=0;exitPerimeter=0;" edge="1" parent="1">
          <mxGeometry width="50" height="50" relative="1" as="geometry">
            <mxPoint x="851.6" y="-717" as="sourcePoint" />
            <mxPoint x="660.9999999999999" y="-717" as="targetPoint" />
          </mxGeometry>
        </mxCell>
        <mxCell id="HSQeCS5ckX4GGS8DgYOH-29" value="Результаты" style="edgeLabel;html=1;align=center;verticalAlign=middle;resizable=0;points=[];" vertex="1" connectable="0" parent="HSQeCS5ckX4GGS8DgYOH-28">
          <mxGeometry x="0.2111" relative="1" as="geometry">
            <mxPoint x="25" as="offset" />
          </mxGeometry>
        </mxCell>
        <mxCell id="HSQeCS5ckX4GGS8DgYOH-30" value="" style="endArrow=classic;html=1;rounded=0;entryX=0;entryY=0.5;entryDx=0;entryDy=0;exitX=0.75;exitY=0;exitDx=0;exitDy=0;" edge="1" parent="1" target="HSQeCS5ckX4GGS8DgYOH-1">
          <mxGeometry width="50" height="50" relative="1" as="geometry">
            <mxPoint x="549.5000000000001" y="-790" as="sourcePoint" />
            <mxPoint x="307" y="-750" as="targetPoint" />
            <Array as="points">
              <mxPoint x="550.0000000000001" y="-1015" />
            </Array>
          </mxGeometry>
        </mxCell>
        <mxCell id="HSQeCS5ckX4GGS8DgYOH-31" value="Запись" style="edgeLabel;html=1;align=center;verticalAlign=middle;resizable=0;points=[];" vertex="1" connectable="0" parent="HSQeCS5ckX4GGS8DgYOH-30">
          <mxGeometry x="-0.5069" relative="1" as="geometry">
            <mxPoint x="100" y="-112" as="offset" />
          </mxGeometry>
        </mxCell>
        <mxCell id="HSQeCS5ckX4GGS8DgYOH-32" value="D2&amp;nbsp; &amp;nbsp; Назначения&amp;nbsp; &amp;nbsp;" style="html=1;dashed=0;whiteSpace=wrap;shape=mxgraph.dfd.dataStoreID;align=left;spacingLeft=3;points=[[0,0],[0.5,0],[1,0],[0,0.5],[1,0.5],[0,1],[0.5,1],[1,1]];" vertex="1" parent="1">
          <mxGeometry x="705.0000000000001" y="-940" width="115" height="30" as="geometry" />
        </mxCell>
        <mxCell id="HSQeCS5ckX4GGS8DgYOH-33" value="" style="endArrow=classic;html=1;rounded=0;startArrow=none;startFill=0;exitX=0.5;exitY=1;exitDx=0;exitDy=0;entryX=0.564;entryY=-0.022;entryDx=0;entryDy=0;entryPerimeter=0;" edge="1" parent="1" source="HSQeCS5ckX4GGS8DgYOH-1" target="HSQeCS5ckX4GGS8DgYOH-32">
          <mxGeometry width="50" height="50" relative="1" as="geometry">
            <mxPoint x="772.0000000000001" y="-895" as="sourcePoint" />
            <mxPoint x="656.0000000000001" y="-850" as="targetPoint" />
            <Array as="points" />
          </mxGeometry>
        </mxCell>
        <mxCell id="HSQeCS5ckX4GGS8DgYOH-34" value="Заключения" style="edgeLabel;html=1;align=center;verticalAlign=middle;resizable=0;points=[];" vertex="1" connectable="0" parent="HSQeCS5ckX4GGS8DgYOH-33">
          <mxGeometry x="0.2111" relative="1" as="geometry">
            <mxPoint y="-11" as="offset" />
          </mxGeometry>
        </mxCell>
        <mxCell id="HSQeCS5ckX4GGS8DgYOH-35" value="D4&amp;nbsp; &amp;nbsp; Расписания" style="html=1;dashed=0;whiteSpace=wrap;shape=mxgraph.dfd.dataStoreID;align=left;spacingLeft=3;points=[[0,0],[0.5,0],[1,0],[0,0.5],[1,0.5],[0,1],[0.5,1],[1,1]];" vertex="1" parent="1">
          <mxGeometry x="601.0000000000001" y="-610" width="115" height="30" as="geometry" />
        </mxCell>
        <mxCell id="HSQeCS5ckX4GGS8DgYOH-36" value="D1&amp;nbsp; &amp;nbsp; Пациент" style="html=1;dashed=0;whiteSpace=wrap;shape=mxgraph.dfd.dataStoreID;align=left;spacingLeft=3;points=[[0,0],[0.5,0],[1,0],[0,0.5],[1,0.5],[0,1],[0.5,1],[1,1]];" vertex="1" parent="1">
          <mxGeometry x="520.0000000000001" y="-530" width="115" height="30" as="geometry" />
        </mxCell>
        <mxCell id="HSQeCS5ckX4GGS8DgYOH-37" value="" style="endArrow=classic;html=1;rounded=0;startArrow=classic;startFill=1;entryX=0.475;entryY=0.006;entryDx=0;entryDy=0;entryPerimeter=0;" edge="1" parent="1" target="HSQeCS5ckX4GGS8DgYOH-36">
          <mxGeometry width="50" height="50" relative="1" as="geometry">
            <mxPoint x="575" y="-680" as="sourcePoint" />
            <mxPoint x="530.0000000000001" y="-926" as="targetPoint" />
            <Array as="points" />
          </mxGeometry>
        </mxCell>
        <mxCell id="HSQeCS5ckX4GGS8DgYOH-39" value="Данные профиля" style="edgeLabel;html=1;align=center;verticalAlign=middle;resizable=0;points=[];" vertex="1" connectable="0" parent="HSQeCS5ckX4GGS8DgYOH-37">
          <mxGeometry x="-0.0305" y="-3" relative="1" as="geometry">
            <mxPoint x="4" y="52" as="offset" />
          </mxGeometry>
        </mxCell>
        <mxCell id="HSQeCS5ckX4GGS8DgYOH-41" value="D3&amp;nbsp; &amp;nbsp; Анализы" style="html=1;dashed=0;whiteSpace=wrap;shape=mxgraph.dfd.dataStoreID;align=left;spacingLeft=3;points=[[0,0],[0.5,0],[1,0],[0,0.5],[1,0.5],[0,1],[0.5,1],[1,1]];" vertex="1" parent="1">
          <mxGeometry x="820.0000000000001" y="-740" width="115" height="30" as="geometry" />
        </mxCell>
        <mxCell id="HSQeCS5ckX4GGS8DgYOH-42" value="D5&amp;nbsp; &amp;nbsp; Уведомления" style="html=1;dashed=0;whiteSpace=wrap;shape=mxgraph.dfd.dataStoreID;align=left;spacingLeft=3;points=[[0,0],[0.5,0],[1,0],[0,0.5],[1,0.5],[0,1],[0.5,1],[1,1]];" vertex="1" parent="1">
          <mxGeometry x="1000.0000000000001" y="-713" width="115" height="30" as="geometry" />
        </mxCell>
        <mxCell id="HSQeCS5ckX4GGS8DgYOH-44" value="" style="endArrow=classic;html=1;rounded=0;exitX=-0.001;exitY=0.438;exitDx=0;exitDy=0;exitPerimeter=0;" edge="1" parent="1" source="HSQeCS5ckX4GGS8DgYOH-2">
          <mxGeometry width="50" height="50" relative="1" as="geometry">
            <mxPoint x="1002.2000000000002" y="-797" as="sourcePoint" />
            <mxPoint x="870.0000000000001" y="-741" as="targetPoint" />
            <Array as="points">
              <mxPoint x="870.0000000000001" y="-828" />
            </Array>
          </mxGeometry>
        </mxCell>
        <mxCell id="HSQeCS5ckX4GGS8DgYOH-45" value="Статус" style="edgeLabel;html=1;align=center;verticalAlign=middle;resizable=0;points=[];" vertex="1" connectable="0" parent="HSQeCS5ckX4GGS8DgYOH-44">
          <mxGeometry x="0.2111" relative="1" as="geometry">
            <mxPoint x="79" y="-1" as="offset" />
          </mxGeometry>
        </mxCell>
        <mxCell id="HSQeCS5ckX4GGS8DgYOH-46" value="" style="endArrow=classic;html=1;rounded=0;exitX=0;exitY=0.75;exitDx=0;exitDy=0;" edge="1" parent="1" source="HSQeCS5ckX4GGS8DgYOH-2">
          <mxGeometry width="50" height="50" relative="1" as="geometry">
            <mxPoint x="1002.8000000000001" y="-780" as="sourcePoint" />
            <mxPoint x="890.0000000000001" y="-741" as="targetPoint" />
            <Array as="points">
              <mxPoint x="890.0000000000001" y="-812" />
            </Array>
          </mxGeometry>
        </mxCell>
        <mxCell id="HSQeCS5ckX4GGS8DgYOH-47" value="Результаты" style="edgeLabel;html=1;align=center;verticalAlign=middle;resizable=0;points=[];" vertex="1" connectable="0" parent="HSQeCS5ckX4GGS8DgYOH-46">
          <mxGeometry x="0.2111" relative="1" as="geometry">
            <mxPoint x="60" as="offset" />
          </mxGeometry>
        </mxCell>
        <mxCell id="HSQeCS5ckX4GGS8DgYOH-49" value="" style="endArrow=classic;html=1;rounded=0;exitX=0;exitY=0.667;exitDx=0;exitDy=0;exitPerimeter=0;entryX=1;entryY=0.828;entryDx=0;entryDy=0;entryPerimeter=0;" edge="1" parent="1" source="HSQeCS5ckX4GGS8DgYOH-42" target="HSQeCS5ckX4GGS8DgYOH-5">
          <mxGeometry width="50" height="50" relative="1" as="geometry">
            <mxPoint x="920.0000000000001" y="-710" as="sourcePoint" />
            <mxPoint x="921.0000000000001" y="-624" as="targetPoint" />
          </mxGeometry>
        </mxCell>
        <mxCell id="HSQeCS5ckX4GGS8DgYOH-51" value="&lt;span style=&quot;font-size: 12px; text-align: left; text-wrap-mode: wrap; background-color: rgb(251, 251, 251);&quot;&gt;Уведомления&lt;/span&gt;" style="edgeLabel;html=1;align=center;verticalAlign=middle;resizable=0;points=[];" vertex="1" connectable="0" parent="HSQeCS5ckX4GGS8DgYOH-49">
          <mxGeometry x="-0.1121" relative="1" as="geometry">
            <mxPoint as="offset" />
          </mxGeometry>
        </mxCell>
        <mxCell id="HSQeCS5ckX4GGS8DgYOH-54" value="Врач" style="html=1;dashed=0;whitespace=wrap;" vertex="1" parent="1">
          <mxGeometry x="830.0000000000001" y="-280" width="100" height="50" as="geometry" />
        </mxCell>
        <mxCell id="HSQeCS5ckX4GGS8DgYOH-56" value="Пациент" style="html=1;dashed=0;whitespace=wrap;" vertex="1" parent="1">
          <mxGeometry x="210" y="-181" width="150" height="60" as="geometry" />
        </mxCell>
        <mxCell id="HSQeCS5ckX4GGS8DgYOH-57" value="2" style="swimlane;childLayout=stackLayout;horizontal=1;startSize=30;horizontalStack=0;rounded=1;fontSize=14;fontStyle=0;strokeWidth=1;resizeParent=0;resizeLast=1;shadow=0;dashed=0;align=center;fillColor=#FFFFFF;" vertex="1" parent="1">
          <mxGeometry x="541.0000000000001" y="-220" width="150" height="110" as="geometry" />
        </mxCell>
        <mxCell id="HSQeCS5ckX4GGS8DgYOH-58" value="Пройти&#xa;медикаментозное&#xa;лечение" style="align=center;strokeColor=none;fillColor=none;spacingLeft=4;fontSize=12;verticalAlign=middle;resizable=0;rotatable=0;part=1;" vertex="1" parent="HSQeCS5ckX4GGS8DgYOH-57">
          <mxGeometry y="30" width="150" height="80" as="geometry" />
        </mxCell>
        <mxCell id="HSQeCS5ckX4GGS8DgYOH-59" value="" style="endArrow=classic;html=1;rounded=0;entryX=0.996;entryY=0.613;entryDx=0;entryDy=0;exitX=-0.001;exitY=0.58;exitDx=0;exitDy=0;entryPerimeter=0;exitPerimeter=0;" edge="1" parent="1" source="HSQeCS5ckX4GGS8DgYOH-58" target="HSQeCS5ckX4GGS8DgYOH-56">
          <mxGeometry width="50" height="50" relative="1" as="geometry">
            <mxPoint x="541.0000000000001" y="-141" as="sourcePoint" />
            <mxPoint x="360.0000000000001" y="-141" as="targetPoint" />
          </mxGeometry>
        </mxCell>
        <mxCell id="HSQeCS5ckX4GGS8DgYOH-60" value="Назначения" style="edgeLabel;html=1;align=center;verticalAlign=middle;resizable=0;points=[];" vertex="1" connectable="0" parent="HSQeCS5ckX4GGS8DgYOH-59">
          <mxGeometry x="0.2111" relative="1" as="geometry">
            <mxPoint x="14" as="offset" />
          </mxGeometry>
        </mxCell>
        <mxCell id="HSQeCS5ckX4GGS8DgYOH-67" value="" style="endArrow=classic;html=1;rounded=0;entryX=-0.003;entryY=0.281;entryDx=0;entryDy=0;entryPerimeter=0;exitX=1.001;exitY=0.216;exitDx=0;exitDy=0;exitPerimeter=0;" edge="1" parent="1" source="HSQeCS5ckX4GGS8DgYOH-56" target="HSQeCS5ckX4GGS8DgYOH-58">
          <mxGeometry width="50" height="50" relative="1" as="geometry">
            <mxPoint x="360" y="-170" as="sourcePoint" />
            <mxPoint x="541" y="-166" as="targetPoint" />
            <Array as="points" />
          </mxGeometry>
        </mxCell>
        <mxCell id="HSQeCS5ckX4GGS8DgYOH-68" value="Данные профиля" style="edgeLabel;html=1;align=center;verticalAlign=middle;resizable=0;points=[];" vertex="1" connectable="0" parent="HSQeCS5ckX4GGS8DgYOH-67">
          <mxGeometry x="-0.5069" relative="1" as="geometry">
            <mxPoint x="36" y="-2" as="offset" />
          </mxGeometry>
        </mxCell>
        <mxCell id="HSQeCS5ckX4GGS8DgYOH-69" value="" style="endArrow=classic;html=1;rounded=0;startArrow=none;startFill=0;exitX=0;exitY=0.5;exitDx=0;exitDy=0;" edge="1" source="HSQeCS5ckX4GGS8DgYOH-81" parent="1">
          <mxGeometry width="50" height="50" relative="1" as="geometry">
            <mxPoint x="547.0000000000001" y="40" as="sourcePoint" />
            <mxPoint x="692" y="-165" as="targetPoint" />
            <Array as="points" />
          </mxGeometry>
        </mxCell>
        <mxCell id="HSQeCS5ckX4GGS8DgYOH-70" value="Назначения" style="edgeLabel;html=1;align=center;verticalAlign=middle;resizable=0;points=[];" vertex="1" connectable="0" parent="HSQeCS5ckX4GGS8DgYOH-69">
          <mxGeometry x="0.2111" relative="1" as="geometry">
            <mxPoint x="15" as="offset" />
          </mxGeometry>
        </mxCell>
        <mxCell id="HSQeCS5ckX4GGS8DgYOH-79" value="" style="endArrow=classic;html=1;rounded=0;entryX=0;entryY=0.5;entryDx=0;entryDy=0;" edge="1" target="HSQeCS5ckX4GGS8DgYOH-54" parent="1">
          <mxGeometry width="50" height="50" relative="1" as="geometry">
            <mxPoint x="665" y="-220" as="sourcePoint" />
            <mxPoint x="337" y="-180" as="targetPoint" />
            <Array as="points">
              <mxPoint x="665" y="-255" />
            </Array>
          </mxGeometry>
        </mxCell>
        <mxCell id="HSQeCS5ckX4GGS8DgYOH-80" value="Запись" style="edgeLabel;html=1;align=center;verticalAlign=middle;resizable=0;points=[];" vertex="1" connectable="0" parent="HSQeCS5ckX4GGS8DgYOH-79">
          <mxGeometry x="-0.5069" relative="1" as="geometry">
            <mxPoint x="68" as="offset" />
          </mxGeometry>
        </mxCell>
        <mxCell id="HSQeCS5ckX4GGS8DgYOH-81" value="D2&amp;nbsp; &amp;nbsp; Назначения&amp;nbsp; &amp;nbsp;" style="html=1;dashed=0;whiteSpace=wrap;shape=mxgraph.dfd.dataStoreID;align=left;spacingLeft=3;points=[[0,0],[0.5,0],[1,0],[0,0.5],[1,0.5],[0,1],[0.5,1],[1,1]];" vertex="1" parent="1">
          <mxGeometry x="815.0000000000001" y="-180" width="115" height="30" as="geometry" />
        </mxCell>
        <mxCell id="HSQeCS5ckX4GGS8DgYOH-82" value="" style="endArrow=classic;html=1;rounded=0;startArrow=none;startFill=0;exitX=0.5;exitY=1;exitDx=0;exitDy=0;entryX=0.564;entryY=-0.022;entryDx=0;entryDy=0;entryPerimeter=0;" edge="1" source="HSQeCS5ckX4GGS8DgYOH-54" target="HSQeCS5ckX4GGS8DgYOH-81" parent="1">
          <mxGeometry width="50" height="50" relative="1" as="geometry">
            <mxPoint x="882.0000000000001" y="-135" as="sourcePoint" />
            <mxPoint x="766.0000000000001" y="-90" as="targetPoint" />
            <Array as="points" />
          </mxGeometry>
        </mxCell>
        <mxCell id="HSQeCS5ckX4GGS8DgYOH-83" value="Назначения" style="edgeLabel;html=1;align=center;verticalAlign=middle;resizable=0;points=[];" vertex="1" connectable="0" parent="HSQeCS5ckX4GGS8DgYOH-82">
          <mxGeometry x="0.2111" relative="1" as="geometry">
            <mxPoint y="-7" as="offset" />
          </mxGeometry>
        </mxCell>
        <mxCell id="HSQeCS5ckX4GGS8DgYOH-85" value="D1&amp;nbsp; &amp;nbsp; Пациент" style="html=1;dashed=0;whiteSpace=wrap;shape=mxgraph.dfd.dataStoreID;align=left;spacingLeft=3;points=[[0,0],[0.5,0],[1,0],[0,0.5],[1,0.5],[0,1],[0.5,1],[1,1]];" vertex="1" parent="1">
          <mxGeometry x="560.0000000000001" y="-50" width="115" height="30" as="geometry" />
        </mxCell>
        <mxCell id="HSQeCS5ckX4GGS8DgYOH-86" value="" style="endArrow=classic;html=1;rounded=0;startArrow=classic;startFill=1;entryX=0.5;entryY=0;entryDx=0;entryDy=0;exitX=0.432;exitY=0.997;exitDx=0;exitDy=0;exitPerimeter=0;" edge="1" target="HSQeCS5ckX4GGS8DgYOH-85" parent="1">
          <mxGeometry width="50" height="50" relative="1" as="geometry">
            <mxPoint x="617.7999999999997" y="-110.23999999999978" as="sourcePoint" />
            <mxPoint x="572.0000000000001" y="-356" as="targetPoint" />
            <Array as="points" />
          </mxGeometry>
        </mxCell>
        <mxCell id="HSQeCS5ckX4GGS8DgYOH-87" value="Данные профиля" style="edgeLabel;html=1;align=center;verticalAlign=middle;resizable=0;points=[];" vertex="1" connectable="0" parent="HSQeCS5ckX4GGS8DgYOH-86">
          <mxGeometry x="-0.0305" y="-3" relative="1" as="geometry">
            <mxPoint x="2" y="1" as="offset" />
          </mxGeometry>
        </mxCell>
        <mxCell id="HSQeCS5ckX4GGS8DgYOH-96" value="&lt;font style=&quot;font-size: 20px;&quot;&gt;&lt;b&gt;Логическая DFD-диаграмма 1&lt;/b&gt;&lt;/font&gt;" style="text;html=1;align=center;verticalAlign=middle;resizable=0;points=[];autosize=1;strokeColor=none;fillColor=none;" vertex="1" parent="1">
          <mxGeometry x="457.5" y="-1120" width="320" height="40" as="geometry" />
        </mxCell>
        <mxCell id="HSQeCS5ckX4GGS8DgYOH-97" value="&lt;font style=&quot;font-size: 20px;&quot;&gt;&lt;b&gt;Логическая DFD-диаграмма 2&lt;/b&gt;&lt;/font&gt;" style="text;html=1;align=center;verticalAlign=middle;resizable=0;points=[];autosize=1;strokeColor=none;fillColor=none;" vertex="1" parent="1">
          <mxGeometry x="457.5" y="-370" width="320" height="40" as="geometry" />
        </mxCell>
      </root>
    </mxGraphModel>
  </diagram>
</mxfile>
